# xmcd
#
# Track frame offsets: 
#        150
#        12146
#        24388
#        42779
#        57195
#        69505
#        78966
#        87936
#        97856
#        112843
#        128071
#        137033
#        152374
#
# Disc length: 2150 seconds
#
# Revision: 0
# Processed by: cddbd v1.5.2PL0 Copyright (c) Steve Scherf et al.
# Submitted via: ExactAudioCopyFreeDBPlugin 1.0
#
DISCID=8c08640d
DTITLE=Daddy Long Legs - Blood From A Stone
DYEAR=2014
DGENRE=Blues
TTITLE0=Long John's Jump
TTITLE1=Big Road Blues
TTITLE2=Blood From A Stone
TTITLE3=Heart To Heart
TTITLE4=Chains-A-Rattlin'
TTITLE5=Fleash Eating Cocaine Blues
TTITLE6=New York City
TTITLE7=Snake Juice
TTITLE8=10,000 Miles
TTITLE9=Take It Home
TTITLE10=Castin' My Spell
TTITLE11=Motocycle Madness
TTITLE12=Catch You On Down The Trail
EXTD=
EXTT0=
EXTT1=
EXTT2=
EXTT3=
EXTT4=
EXTT5=
EXTT6=
EXTT7=
EXTT8=
EXTT9=
EXTT10=
EXTT11=
EXTT12=
PLAYORDER=
